<?xml version="1.0" encoding="UTF-8" standalone="no"?>
<!-- Created with Inkscape (http://www.inkscape.org/) -->

<svg
   xmlns:dc="http://purl.org/dc/elements/1.1/"
   xmlns:cc="http://creativecommons.org/ns#"
   xmlns:rdf="http://www.w3.org/1999/02/22-rdf-syntax-ns#"
   xmlns:svg="http://www.w3.org/2000/svg"
   xmlns="http://www.w3.org/2000/svg"
   xmlns:sodipodi="http://sodipodi.sourceforge.net/DTD/sodipodi-0.dtd"
   xmlns:inkscape="http://www.inkscape.org/namespaces/inkscape"
   version="1.1"
   id="svg815"
   xml:space="preserve"
   width="73.972"
   height="79.939735"
   viewBox="0 0 73.972 79.939735"
   sodipodi:docname="buscket-promo-block.svg"
   inkscape:version="0.92.2 (5c3e80d, 2017-08-06)"><metadata
     id="metadata821"><rdf:RDF><cc:Work
         rdf:about=""><dc:format>image/svg+xml</dc:format><dc:type
           rdf:resource="http://purl.org/dc/dcmitype/StillImage" /><dc:title></dc:title></cc:Work></rdf:RDF></metadata><defs
     id="defs819"><clipPath
       clipPathUnits="userSpaceOnUse"
       id="clipPath831"><path
         d="M 0,59.955 H 55.479 V 0 H 0 Z"
         id="path829"
         inkscape:connector-curvature="0" /></clipPath></defs><sodipodi:namedview
     pagecolor="#ffffff"
     bordercolor="#666666"
     borderopacity="1"
     objecttolerance="10"
     gridtolerance="10"
     guidetolerance="10"
     inkscape:pageopacity="0"
     inkscape:pageshadow="2"
     inkscape:window-width="1920"
     inkscape:window-height="1017"
     id="namedview817"
     showgrid="false"
     inkscape:zoom="10.607991"
     inkscape:cx="36.986"
     inkscape:cy="39.969868"
     inkscape:window-x="-8"
     inkscape:window-y="-8"
     inkscape:window-maximized="1"
     inkscape:current-layer="g823" /><g
     id="g823"
     inkscape:groupmode="layer"
     inkscape:label="buscket-promo-block"
     transform="matrix(1.3333333,0,0,-1.3333333,0,79.939733)"><g
       id="g825"><g
         id="g827"
         clip-path="url(#clipPath831)"><g
           id="g833"
           transform="translate(53.079,35.2702)"><path
             d="m 0,0 c 0,-0.403 -0.328,-0.731 -0.731,-0.731 h -2.031 c -10e-4,0 -0.002,0.001 -0.003,0.001 -10e-4,0 -0.002,-0.001 -0.003,-0.001 h -22.568 c -0.001,0 -0.002,0.001 -0.003,0.001 -0.001,0 -0.002,-0.001 -0.003,-0.001 h -22.571 c -0.001,0 -0.002,0.001 -0.003,0.001 -0.001,0 -0.002,-0.001 -0.003,-0.001 h -2.027 c -0.404,0 -0.733,0.328 -0.733,0.731 v 9.382 c 0,0.397 0.335,0.732 0.733,0.732 H -0.731 C -0.335,10.114 0,9.78 0,9.382 Z M -3.965,-16.801 H -24.14 V -3.13 h 20.175 z m -3.629,-16.07 H -24.14 v 13.67 H -3.965 V -29.24 c 0,-2.002 -1.628,-3.631 -3.629,-3.631 m -39.122,3.631 v 10.039 h 20.177 v -13.67 h -16.546 c -2.002,0 -3.631,1.629 -3.631,3.631 m 20.177,12.439 H -46.716 V -3.13 h 20.177 z m -14.791,36.28 c 1.402,2.592 4.653,3.56 7.248,2.157 3.524,-1.909 5.999,-6.596 7.129,-9.122 h -12.639 c -2.26,1.519 -3.059,4.524 -1.738,6.965 m 24.734,2.157 c 1.256,0.68 2.701,0.83 4.071,0.423 1.368,-0.408 2.496,-1.323 3.175,-2.58 0.681,-1.256 0.831,-2.702 0.424,-4.071 -0.358,-1.204 -1.128,-2.202 -2.159,-2.894 h -12.64 c 1.129,2.526 3.605,7.214 7.129,9.122 m 15.865,-9.122 h -6.96 c 0.462,0.668 0.827,1.408 1.066,2.21 0.59,1.984 0.372,4.078 -0.613,5.898 -0.985,1.819 -2.618,3.147 -4.603,3.737 -1.982,0.59 -4.078,0.373 -5.897,-0.612 -3.609,-1.954 -6.168,-6.11 -7.601,-9.011 -1.433,2.901 -3.993,7.056 -7.601,9.011 -3.758,2.032 -8.468,0.629 -10.5,-3.125 -1.437,-2.654 -1.153,-5.781 0.459,-8.108 h -6.965 c -1.728,0 -3.133,-1.405 -3.133,-3.132 V 0.001 c 0,-1.727 1.405,-3.131 3.133,-3.131 h 0.83 v -26.11 c 0,-3.325 2.705,-6.03 6.031,-6.03 h 35.491 c 3.324,0 6.03,2.705 6.03,6.03 v 26.11 h 0.834 c 1.726,0 3.13,1.404 3.13,3.13 v 9.382 c 0,1.727 -1.405,3.132 -3.131,3.132"
             style="fill:#000000;fill-opacity:1;fill-rule:nonzero;stroke:none"
             id="path835"
             inkscape:connector-curvature="0" /></g></g></g></g></svg>