<svg xmlns="http://www.w3.org/2000/svg" width="55" height="60" fill="white"><defs><clipPath id="a"><path d="M0 59.955h55.479V0H0z"/></clipPath></defs><g clip-path="url(#a)" transform="matrix(1.33333 0 0 -1.33333 0 79.94)"><path d="M53.079 35.27a.732.732 0 0 0-.731-.73H3.133a.733.733 0 0 0-.733.73v9.382c0 .397.335.732.733.732h49.215a.74.74 0 0 0 .731-.732zm-3.965-16.8H28.939v13.67h20.175zM45.485 2.4H28.939v13.67h20.175V6.03a3.634 3.634 0 0 0-3.629-3.63M6.363 6.03v10.04H26.54V2.4H9.994a3.635 3.635 0 0 0-3.631 3.63M26.54 18.47H6.363v13.67H26.54zM11.749 54.75a5.354 5.354 0 0 0 7.248 2.156c3.524-1.909 5.999-6.596 7.129-9.122H13.487c-2.26 1.52-3.059 4.524-1.738 6.965m24.734 2.157c1.256.68 2.701.83 4.071.423a5.307 5.307 0 0 0 3.175-2.58 5.31 5.31 0 0 0 .424-4.07c-.358-1.205-1.128-2.203-2.159-2.895h-12.64c1.129 2.526 3.605 7.214 7.129 9.122m15.865-9.122h-6.96a7.794 7.794 0 0 1 1.066 2.21 7.699 7.699 0 0 1-.613 5.898 7.693 7.693 0 0 1-4.603 3.737 7.696 7.696 0 0 1-5.897-.612c-3.609-1.954-6.168-6.11-7.601-9.01-1.433 2.9-3.993 7.055-7.601 9.01-3.758 2.032-8.468.63-10.5-3.125-1.437-2.654-1.153-5.78.459-8.108H3.133A3.136 3.136 0 0 1 0 44.652v-9.38a3.135 3.135 0 0 1 3.133-3.132h.83V6.03A6.037 6.037 0 0 1 9.994 0h35.491a6.037 6.037 0 0 1 6.03 6.03v26.11h.834a3.133 3.133 0 0 1 3.13 3.13v9.382a3.135 3.135 0 0 1-3.131 3.132"/></g></svg>
