<svg xmlns="http://www.w3.org/2000/svg" width="605.405" height="251.147"><defs><clipPath id="a"><path d="M0 188.36h454.054V0H0z"/></clipPath></defs><g clip-path="url(#a)" transform="matrix(1.33333 0 0 -1.33333 0 251.147)"><path d="M417.005 168.803c4.077 6.327 9.187 11.443 15.388 15.574 3.365 2.242 5.508 2.237 7.299-1.858 2.856-6.534 5.108-13.063 3.061-20.282-.74-2.612-.202-4.851 1.422-7.026 1.892-2.533 3.574-5.224 5.324-7.861 4.281-6.452 6.023-13.25 3.126-20.828-1.266-3.312-1.398-6.751-.686-10.316.651-3.261.529-6.633-.001-9.953-.868-5.433-3.678-9.236-9.154-10.676-4.311-1.134-8.055-3.104-10.865-6.666-.73-.924-1.659-1.639-2.896-1.806-3.995-.54-14.155 8.473-14.143 12.552.002.666.04 1.333.053 1.999.223 12.049-.498 13.217-11.554 18.045-2.325 1.016-4.54 2.163-6.132 4.165-2.194 2.76-4.861 2.506-7.652 1.335-2.825-1.186-4.693-3.026-4.317-6.478.883-8.118 1.223-16.267 1.184-24.435-.005-.951.259-2.065.791-2.831 10.487-15.111 14.438-32.883 19.668-49.993 3.991-13.057 11.505-20.154 25.012-21.108 2.149-.152 4.278-.653 6.405-1.049 6.045-1.123 9.666-4.933 11.446-10.616C452 1.616 450.896.11 443.53.061c-7.331-.05-14.664.038-21.994-.059-2.965-.039-5.488.539-7.712 2.732-3.261 3.215-7.537 4.859-11.641 6.678-4.504 1.997-8.689 4.509-11.37 8.676-3.752 5.83-8.856 10.356-13.633 15.217-9.575 9.741-19.488 19.147-28.544 29.402-6.519 7.381-10.788 15.581-10.705 25.617.026 3.152-.79 4.468-4.025 2.881-1.034-.506-2.214-.983-3.335-1.002-9.535-.152-14.198-5.844-17.576-14.058-2.964-7.209-7.195-13.892-10.764-20.86-2.377-4.639-3.919-9.538-3.914-14.834.007-7.913 1.869-10.754 9.33-13.419 4.625-1.65 9.074-3.38 11.603-8.02 2.858-5.243 2.018-6.859-3.849-6.918-7.665-.077-15.331.037-22.994-.062-2.981-.04-4.987.993-6.443 3.702-1.89 3.514-4.156 6.827-6.253 10.231-3.477 5.648-4.889 11.419-2.534 18.063 2.047 5.775 1.123 11.963.27 17.844-1.27 8.759.113 16.581 5.844 23.429 1.869 2.232 2.112 3.463-1.336 4.11-14.006 2.631-27.245 7.57-40.059 13.717a6.623 6.623 0 0 1-.458.201c-10.817 4.155-12.899 3.225-15.937-7.673-2.639-9.46-5.386-18.913-7.445-28.505-2.276-10.601.384-20.845 3.79-30.857 1.323-3.887 5.283-3.722 8.319-4.614 6.649-1.95 12.375-4.763 15.279-11.644 2.257-5.347 1.964-6.07-3.69-6.117-5.832-.048-11.685.288-17.49-.099-5.523-.37-9.644 1.744-14.149 4.754-16.295 10.883-20.921 27.131-22.229 45.22-.812 11.231-6.732 19.999-13.919 28.124-1.396 1.578-2.665 2.229-4.694.942-7.095-4.502-15.086-6.986-22.871-9.935-16.371-6.202-30.572-15.458-41.313-29.538-3.907-5.121-6.6-10.801-7.554-17.205-.902-6.048.795-8.601 6.639-10.323 6.469-1.907 9.033-5.038 9.766-11.568.31-2.762-.69-4.185-3.469-4.186-9.163-.004-18.327.025-27.49.056-2.028.007-3.331 1.205-4.54 2.695-4.376 5.394-6.429 11.642-6.607 18.477-.304 11.699 1.07 23.271 3.132 34.761 1.273 7.092 4.617 12.91 11.359 16.09 20.017 9.439 30.478 27.13 39.915 45.775 1.903 3.76.218 4.329-3.043 4.038-9.794-.876-18.185-5.221-26.025-10.729-10.11-7.103-19.21-15.433-28.225-23.855-9.871-9.221-21.08-15.629-34.916-16.6C10.66 79.171-1.086 92.672.079 115.125c.397 7.65 2.971 14.727 8.221 20.499 4.049 4.451 8.971 6.884 15.197 5.081 5.174-1.497 6.506-4.102 4.37-8.944-.866-1.966-2.21-3.716-3.245-5.614-1.192-2.186-2.544-4.334-3.371-6.66-3.562-10.023 1.241-17.165 11.842-18.066 11.247-.955 20.389 3.735 28.871 10.384 10.295 8.07 19.272 17.575 27.276 27.753 12.628 16.058 28.947 24.632 48.808 27.213 7.692 1 14.624 4.441 21.986 6.507 14.05 3.942 28.271 6.298 42.878 5.941 6.885-.168 13.249.928 19.822 3.607 16.51 6.729 33.778 6.703 51.099 3.218 13.55-2.726 26.942-6.122 40.383-9.303 7.606-1.8 15.939-1.155 23.704.535 14.996 3.263 30.005 6.308 45.383 6.591 10.059.185 19.907-1.457 29.175-5.709 6.47-2.969 6.476-2.957 4.527-9.355"/></g></svg>