<svg xmlns="http://www.w3.org/2000/svg" width="35" height="49"><defs><clipPath id="a"><path d="M0 512h367.603V0H0z"/></clipPath></defs><g clip-path="url(#a)" transform="matrix(-1.33333 0 0 -1.33333 490.137 682.667)"><path fill="#000" d="M79.587 512h2c3.575-1.857 5.713-4.978 7.548-8.416 3.078-5.771 5.272-11.898 6.915-18.179 1.118-4.273 3.43-6.318 7.777-7.072 12.275-2.126 21.222-9.128 27.467-19.755 3.896-6.629 6.925-13.662 9.687-20.823 7.497-19.439 13.226-39.483 20.215-59.093 3.338-9.365 3.475-9.242 13.484-9.339 11.895-.115 11.062 1.861 11.243-11.328.058-4.181-1.26-6.291-5.672-6.078-1.367.065-3.423.69-3.94-1.138-.428-1.52 1.258-2.576 2.267-3.644 6.263-6.63 14.106-10.496 22.78-12.841 9.966-2.694 20.127-4.799 29.888-8.092 24.899-8.401 47.985-20.127 65.925-39.976 10.952-12.118 18.48-26.483 24.884-41.387 19.504-45.409 28.638-93.469 35.91-141.982 3.405-22.725 5.804-45.578 7.66-68.471.93-11.435 2.13-22.878 1.962-34.386h-175c-.617 2.436.389 4.612 1.216 6.762 3.562 9.257 10.867 14.082 20.096 16.217 3.645.845 4.11 1.943 1.844 4.829-3.846 4.897-6.374 10.535-8.353 16.391-8.575 25.368-11.887 51.845-16.024 78.114-3.158 20.052-7.872 39.457-18.26 57.152-7.68 13.082-17.306 24.416-29.381 33.632-4.363 3.329-4.501 3.33-5.248-2.323-.5-3.783-.63-7.619-.863-11.435-1.517-24.955-1.382-49.899.906-74.801 1.784-19.418 2.492-38.812.804-58.292-1.945-22.447-6.058-44.477-11.737-66.246h-70c1.698 11.578 11.05 21.248 22.27 23.441 6.74 1.318 13.275.43 19.787-1.067 3.14-.723 4.453-.156 4.718 3.427 2.079 28.071.659 55.973-5.048 83.499-6.594 31.803-12.804 63.67-16.1 95.98-1.367 13.422-5.43 25.474-11.942 37.093-6.27 11.185-11.727 22.822-17.882 34.073-4.878 8.917-5.806 17.929-2.18 27.394 1.43 3.73 2.785 7.51 4.527 11.095 5.02 10.336 10.35 20.523 15.302 30.891 2.56 5.361 2.033 5.933-3.725 6.057-8.565.183-8.567.183-8.702 8.673-.02 1.166.029 2.333.006 3.499-.073 3.633 1.344 5.641 5.33 5.345 2.652-.196 5.33-.001 7.995-.05 3.634-.069 4.68 1.52 3.79 5.039-3.042 12.035-14.595 21.902-26.972 23.414-11.757 1.436-23.252-.232-34.721-2.275-3.408-.608-5.285.138-6.572 3.376-2.09 5.261-4.445 10.418-6.766 15.584-.97 2.157-1.047 4.05.488 6.043 16.688 21.67 34.874 41.698 59.71 54.397 2.607 1.332 4.052 3.033 4.663 5.941 1.576 7.497 3.417 14.938 6.657 21.947 1.702 3.682 3.663 7.123 7.367 9.184"/></g></svg>
