<svg xmlns="http://www.w3.org/2000/svg" width="21.333" height="21.345"><defs><clipPath id="a"><path d="M0 16.009h16V0H0z"/></clipPath></defs><g clip-path="url(#a)" transform="matrix(1.33333 0 0 -1.33333 0 21.345)"><path d="M11.825 16.01h-7.65A4.186 4.186 0 0 1 0 11.832V4.176A4.187 4.187 0 0 1 4.174 0h7.653A4.188 4.188 0 0 1 16 4.177v7.656a4.188 4.188 0 0 1-4.175 4.176m0-1.043a3.136 3.136 0 0 0 3.131-3.133V4.176a3.135 3.135 0 0 0-3.13-3.132H4.173a3.135 3.135 0 0 0-3.13 3.132v7.657a3.136 3.136 0 0 0 3.13 3.132h7.651" fill="#231f20"/><path d="M8 12.126a4.126 4.126 0 1 1 0-8.252 4.126 4.126 0 0 1 0 8.252m0-1.044A3.086 3.086 0 0 0 11.083 8 3.088 3.088 0 0 0 8 4.917 3.086 3.086 0 0 0 4.918 8c0 1.7 1.382 3.082 3.082 3.082M12.273 13.199a.934.934 0 1 0 0-1.868.934.934 0 0 0 0 1.868" fill="#231f20"/></g></svg>