<svg xmlns="http://www.w3.org/2000/svg" width="27" height="34"><path d="M17.964 0L0 1.881v32.883l17.965 10.688 17.907-10.654.055-.032V1.882L18.16.022zM2.567 4.194L17.965 2.58l15.396 1.616V16.17h-.002L17.993 7.11l-.001-.138-.116.066-.117-.074v.145L2.567 16.157zm.145 13.967L17.873 9.05 33.231 18l-5.972 3.52-9.458-5.627-.018 1.885 7.872 4.684-1.147.677-6.707-3.99-.018 1.886 5.102 3.034-1.042.698-4.042-2.382-.018 1.884 2.47 1.453-2.4 1.441zm26.11 11.399l-.015-6.903 4.554-2.716v13.363l-15.397 9.161-15.397-9.161V20.169l15.214 9.056.022 1.392-10.59-6.304-.02 1.888 10.639 6.393.025 1.435-10.632-6.32-.017 1.885 10.695 6.43.062.031z"/></svg>
