<svg xmlns="http://www.w3.org/2000/svg" width="13.333" height="25.333"><defs><clipPath id="a"><path d="M0 19h10V0H0z"/></clipPath></defs><g clip-path="url(#a)" transform="matrix(1.33333 0 0 -1.33333 0 25.333)"><path d="M3.118 1.027h2.823v8.835h2.927v2.311H5.944l-.012.502c-.032 1.397.001 2.591.745 3.054l.14.087h2.072v2.157H6.494c-1.152-.062-2.006-.398-2.579-1.025-.77-.842-1.043-2.257-.813-4.206l.069-.57H1.11V9.861h2.008zM7.051 0H2.009v8.836H0V13.2h1.945c-.15 1.976.22 3.423 1.124 4.412.768.842 1.91 1.309 3.394 1.387L10 19v-4.211H7.222c-.123-.216-.185-.748-.186-1.589h2.942V8.835H7.051z"/></g></svg>