<svg xmlns="http://www.w3.org/2000/svg" width="29.334" height="16"><defs><clipPath id="a"><path d="M0 12h22V0H0z"/></clipPath></defs><g clip-path="url(#a)" transform="matrix(1.33333 0 0 -1.33333 0 16)"><path d="M13.661 3.686c.66 0 1.233-.6 1.842-1.232.364-.381.741-.774 1.096-.996.534-.335.965-.32 1.026-.313l.075.007 2.79.035c.126.01.302.056.394.103a.872.872 0 0 1-.073.128c-.329.546-1.017 1.263-1.969 2.07-.869.733-1.32 1.115-1.368 1.708-.048.614.362 1.096 1.18 2.059.204.242.442.52.708.844 1.143 1.387 1.435 2.01 1.51 2.25a3.819 3.819 0 0 1-.498.015l-3.198-.022c-.14 0-.183-.026-.183-.027a15.773 15.773 0 0 0-1.205-2.322c-1.39-2.148-2.042-2.437-2.498-2.438a.806.806 0 0 0-.417.113c-.736.433-.707 1.396-.686 2.099.004.114.008.225.008.328 0 .492.018.92.035 1.286.056 1.28.012 1.289-.278 1.353-.3.065-.517.112-1.36.12l-.509.005c-.458 0-.984-.011-1.398-.075a1.32 1.32 0 0 0 .19-.191c.432-.536.443-1.486.441-1.671.095-1.253.045-2.89-.746-3.284a.972.972 0 0 0-.438-.104c-.679 0-1.36.673-2.512 2.487a17.56 17.56 0 0 0-1.163 2.199.366.366 0 0 1-.055.07.834.834 0 0 1-.235.09l-2.934-.02a.477.477 0 0 1-.05-.002c.432-.906 2.511-5.02 4.78-7.173 2.008-1.905 4.271-2.002 4.704-2.002l1.358.003a.837.837 0 0 1 .197.076c-.014-.014-.007.04-.007.073-.002.203.01 1.977 1.157 2.31.092.027.19.04.29.04M17.552 0c-.284 0-.858.063-1.522.482-.47.293-.896.736-1.308 1.166-.32.335-.859.896-1.06.896-.197-.057-.354-.701-.35-1.195.003-.086 0-.59-.343-.923-.312-.304-.798-.37-.892-.38L10.666.04c-.709 0-3.195.166-5.447 2.3C2.525 4.899.207 9.803.11 10.01c-.144.35-.182.81.112 1.128.287.315.793.36.996.365l2.994.018.084-.006c.067-.011.416-.072.702-.266.285-.188.433-.495.46-.556.007-.015.475-1.09 1.081-2.043.962-1.516 1.39-1.87 1.542-1.951.138.318.203 1.294.137 2.186.001.375-.074.836-.185.973-.082.102-.312.193-.57.224l-.53.526c-.07.5.466.934.843 1.1.54.242 1.314.292 2.307.292l.521-.003c.906-.01 1.19-.062 1.576-.146 1.248-.275 1.203-1.317 1.15-2.522a26.226 26.226 0 0 1-.035-1.234c0-.116-.003-.238-.008-.365-.009-.29-.023-.791.068-.993.161.11.625.506 1.52 1.89.574.888 1.026 1.934 1.112 2.135.134.328.446.717 1.184.72l3.134.019c.008.003.126.013.276.013.72 0 1.171-.22 1.343-.651.197-.495.124-1.261-1.726-3.506a71.018 71.018 0 0 0-.72-.858c-.438-.517-.89-1.05-.907-1.215.04-.13.486-.506.918-.871 1.122-.951 1.854-1.725 2.224-2.341.383-.577.314-1.013.19-1.277-.31-.658-1.202-.741-1.377-.75L17.746.009a1.69 1.69 0 0 0-.193-.01"/></g></svg>