<svg xmlns="http://www.w3.org/2000/svg" width="33" height="38" viewBox="0 0 44.427 50.152"><defs><clipPath id="a"><path d="M0 37.614h33.32V0H0z"/></clipPath></defs><g clip-path="url(#a)" transform="matrix(1.33333 0 0 -1.33333 0 50.152)"><path d="M6.07 16.89l.053 2.266a143.633 143.633 0 0 0 20.165 1.331 58.464 58.464 0 0 0-.058-1.82s2.923 1.348 6.036 1.813c-2.366 6.323-8.463 10.825-15.612 10.825-8.323 0-15.221-6.102-16.466-14.076 2.172-.136 5.883-.339 5.883-.339M27.238 13.386c-1.16-1.284-1.392-1.2-1.392-3.456 0-.908.028-4.898.036-9.172 4.483 2.987 7.438 8.088 7.438 13.88 0 1.051-.098 2.08-.284 3.078-1.814-1.064-4.812-3.239-5.797-4.33M6.359 11.898s-3.792 1.44-5.184 1.824c-.427.118-.805.226-1.174.283C.226 7.957 3.674 2.732 8.678 0z" fill="#fdc305"/><path d="M26.295 20.492c.145 8.48-1.402 16.467-1.402 16.467s-.144 1.296-.864.241c-.72-1.057-1.2-3.937-1.2-3.937-7.44.433-12.768-.335-12.768-.335-.816 2.735-2.208 3.936-2.88 3.647-.672-.288-.72-3.312-.72-3.312L6.13 19.161a143.623 143.623 0 0 0 20.165 1.331" fill="#f06351"/><path d="M12.413 23.616c-.046.09 1.022-.681 1.406-.921.384-.24.61-.423.61-.591 0-.168-.264-.336-.624-.336s-.912.12-.96.264c0 0 .6.024.936.024h.288s-1.392 1.032-1.656 1.56M19.886 23.502s-1.047-1.274-1.086-1.333c-.04-.059-.165-.34.185-.292.35.048 1.11.224 1.219.282.107.06.069.196-.117.176-.205-.022-.682-.049-.985-.107l.84 1.26s.027.12-.056.014M16.754 17.412s.81.35 1.089 1.008c.279.657.036.912-.441.978-.477.066-1.341.03-1.737-.34-.396-.368-.342-.728-.054-.953.288-.225.846-.603 1.143-.693"/><path d="M16.349 16.16s-.18-.371-.458-.593a1.724 1.724 0 0 0-1.018-.387c-.638-.033-1.056.169-1.452.445-.202.142-.395.255-.532.442a.944.944 0 0 1-.356.253s.747-4.1 2.566-4.747c1.817-.648 2.143.75 2.2 1.133.048.326 0 2.082-.82 3.224-.015.303-.031.1-.13.23" fill="#f06351"/><path d="M14.708 15.027h-.016c-1.293.011-2.291 1.361-2.333 1.418a.144.144 0 1 0 .233.17c.01-.013.956-1.29 2.104-1.3h.012c.584 0 1.132.333 1.627.99l.143.19.102-.214c.004-.007.373-.756.989-.795.496-.03 1.052.412 1.616 1.28a.144.144 0 0 0 .199.041.145.145 0 0 0 .042-.199c-.633-.974-1.265-1.448-1.877-1.409-.563.036-.942.495-1.117.765-.52-.622-1.1-.937-1.724-.937"/><path d="M26.236 18.69s-2.544-2.245-5.064-5.191c-2.52-2.947-5.292-4.876-5.292-4.876-.216.526-1.62 1.508-1.62 1.508s-3.131 2.14-5.183 3.824c-1.18.967-2.347 2.166-3.127 3.01l-2.006.11c4.693-6.97 11.973-8.802 11.973-8.802.863.14 3.275 1.858 5.075 3.262 1.8 1.403 4.752 4.525 5.94 5.892a6.07 6.07 0 0 1 1.137 1.97c-1.11-.382-1.832-.707-1.832-.707" fill="#f06351"/></g></svg>