<svg xmlns="http://www.w3.org/2000/svg" width="101" height="18" viewBox="0 0 134.001 24.114"><defs><clipPath id="a"><path d="M0 18.086h100.501V0H0z"/></clipPath></defs><g clip-path="url(#a)" transform="matrix(1.33333 0 0 -1.33333 0 24.114)"><path d="M1.224 1.51C.409 2.515 0 3.966 0 5.863v6.339c0 1.94.405 3.405 1.214 4.397.808.99 2.189 1.487 4.144 1.487 1.866 0 3.19-.442 3.97-1.325.777-.883 1.167-2.134 1.167-3.755v-1.52H6.638v1.758c0 .68-.075 1.202-.222 1.563-.148.362-.5.543-1.058.543-.559 0-.927-.192-1.103-.575-.176-.383-.264-.916-.264-1.596V4.906c0-.693.091-1.226.275-1.595.184-.37.547-.554 1.092-.554.543 0 .892.185 1.047.554.154.369.232.902.232 1.595v1.846h3.859v-1.52c0-1.65-.39-2.934-1.169-3.853-.78-.92-2.103-1.38-3.969-1.38-1.94 0-3.319.504-4.135 1.51M18.414 6.297l-.947 6.86-.949-6.86zm-3.218 11.55h4.496L23.023.26h-3.638l-.596 3.712h-2.623L15.548.26h-3.726zM25.751 14.959h-2.69v2.888h9.327v-2.888H29.72V.26h-3.969zM39.532 17.847h6.924v-1.824h-4.433v-5.82h3.594V8.468h-3.594V2.019H46.5V.26h-6.968zM48.489 17.847h1.697l5.073-11.681v11.68h2.072V.262h-1.588l-5.138 12.007V.26h-2.116zM59.812 17.847h6.924v-1.824h-4.433v-5.82h3.594V8.468h-3.594V2.019h4.477V.26h-6.968zM72.207 10.27c1.073 0 1.842.21 2.305.63.464.42.694 1.179.694 2.279 0 .724-.08 1.292-.243 1.704a1.64 1.64 0 0 1-.859.912c-.412.196-.993.293-1.743.293h-1.1V10.27zm-3.438 7.577h3.592c1.81 0 3.136-.366 3.981-1.097.844-.73 1.268-1.92 1.268-3.572 0-2.259-.736-3.625-2.206-4.103L77.94.261h-2.402L73.2 8.51h-1.94V.261h-2.49zM80.812 1.553c-.721 1.006-1.081 2.499-1.081 4.483v5.883c0 1.36.144 2.479.43 3.356.287.875.78 1.548 1.478 2.018.697.47 1.656.705 2.877.705 1.647 0 2.833-.412 3.562-1.237.726-.824 1.09-2.12 1.09-3.886v-.651h-2.336v.542c0 .84-.053 1.487-.155 1.944-.103.455-.32.799-.651 1.03-.331.233-.82.348-1.466.348-.691 0-1.205-.155-1.544-.467-.338-.311-.555-.726-.65-1.248-.095-.52-.144-1.216-.144-2.085V5.776c0-1.347.166-2.313.496-2.9.33-.585.968-.878 1.908-.878.926 0 1.562.319 1.908.955.344.636.518 1.658.518 3.06V7.23H84.78v1.737H89.3V.26h-1.564l-.243 2.019C86.933.789 85.875.043 84.318.043c-1.617 0-2.786.504-3.506 1.51M94.282 6.47l-3.857 11.377h2.315l2.733-8.49 2.69 8.49h2.338L96.665 6.47V.26h-2.383z" fill="#111"/></g></svg>