<svg xmlns="http://www.w3.org/2000/svg" width="170.4" height="31.333"><defs><clipPath id="a"><path d="M0 23.5h127.8V0H0z"/></clipPath></defs><g clip-path="url(#a)" transform="matrix(1.33333 0 0 -1.33333 0 31.333)"><path d="M1.6 2C.6 3.3 0 5.2 0 7.6v8.3c0 2.5.5 4.4 1.5 5.7 1.1 1.3 2.8 1.9 5.3 1.9 2.4 0 4.1-.6 5.1-1.7s1.5-2.8 1.5-4.9v-2H8.5v2.3c0 .9-.1 1.6-.3 2-.2.4-.6.8-1.4.8-.7 0-1.2-.2-1.4-.7-.2-.5-.3-1.3-.3-2.2V6.4c0-.9.1-1.6.4-2.1.2-.5.7-.7 1.4-.7s1.1.2 1.3.7c.2.5.3 1.2.3 2.1v2.4h4.9v-2c0-2.1-.5-3.8-1.5-5C10.9.6 9.2 0 6.8 0 4.4.1 2.6.7 1.6 2M23.4 8.2l-1.2 8.9L21 8.2zm-4.1 15H25L29.2.4h-4.6l-.8 4.8h-3.3L19.7.4H15zM32.7 19.4h-3.4v3.8h11.9v-3.7h-3.4V.4h-5.1zM50.3 23.2h8.8v-2.4h-5.7v-7.5H58V11h-4.6V2.6h5.7V.3h-8.9v22.9zM61.7 23.2h2.2l6.5-15.1v15.1H73V.4h-2L64.4 16V.4h-2.7zM76 23.2h8.8v-2.4h-5.7v-7.5h4.6V11h-4.6V2.6h5.7V.3H76zM91.8 13.4c1.4 0 2.3.3 2.9.8.6.5.9 1.5.9 3 0 .9-.1 1.7-.3 2.2-.2.5-.6.9-1.1 1.2-.5.3-1.3.4-2.2.4h-1.4v-7.5h1.2zm-4.4 9.8H92c2.3 0 4-.5 5.1-1.4 1.1-.9 1.6-2.5 1.6-4.6 0-2.9-.9-4.7-2.8-5.3L99.1.5H96l-3 10.7h-2.5V.5h-3.2v22.7zM102.7 2.1c-.9 1.3-1.4 3.2-1.4 5.8v7.6c0 1.8.2 3.2.5 4.3.4 1.1 1 2 1.9 2.6.9.6 2.1.9 3.7.9 2.1 0 3.6-.5 4.5-1.6.9-1.1 1.4-2.7 1.4-5v-.8h-3v.7c0 1.1-.1 1.9-.2 2.5-.1.6-.4 1-.8 1.3-.4.3-1 .5-1.9.5-.9 0-1.5-.2-2-.6-.5-.4-.7-.9-.8-1.6a18.895 18.895 0 0 1-.2-2.7V7.5c0-1.7.2-3 .6-3.8.4-.8 1.2-1.1 2.4-1.1s2 .4 2.4 1.2c.4.8.7 2.1.7 4v1.6h-2.9v2.3h5.8V.4h-2l-.3 2.6c-.7-1.9-2.1-2.9-4.1-2.9-1.9 0-3.4.7-4.3 2M119.8 8.4l-4.9 14.7h3l3.5-11 3.4 11h3l-4.9-14.7v-8h-3v8z" fill="#111"/></g></svg>