<svg xmlns="http://www.w3.org/2000/svg" width="26.607" height="26.567"><defs><clipPath id="a"><path d="M0 19.925h19.955V0H0z"/></clipPath></defs><g clip-path="url(#a)" transform="matrix(1.33333 0 0 -1.33333 0 26.567)"><path d="M17.906 10.52h-8.5v-1.2h8.5l-2.101-2.1.9-.9 3.1 3.1c.2.2.2.6 0 .9l-3.1 3.1-.9-.9zM8.105.52v6.2c0 .3-.3.6-.6.6h-4.4c0-.7.6-1.2 1.2-1.2h2.5v-5h-3.7c-1-.1-1.8.7-1.9 1.7v14c0 1 .8 1.8 1.7 1.8H6.806v-5h-2.4c-.7 0-1.2-.6-1.2-1.2h4.4c.3 0 .6.3.6.6v6.3c-.1.3-.4.6-.7.6h-4.4c-1.6.1-3-1.2-3.1-2.9V3.12c-.1-1.701 1.2-3.1 2.9-3.1H7.505c.3-.101.6.2.6.5"/></g></svg>